 <svg
                    width="24"
                    height="24"
                    viewBox="0 0 24 24"
                    xmlns="http://www.w3.org/2000/svg"
                  >
<path d="M18.75 6.75C17.9216 6.75 17.25 6.07843 17.25 5.25C17.25 4.42157 17.9216 3.75 18.75 3.75C19.5784 3.75 20.25 4.42157 20.25 5.25C20.25 6.07843 19.5784 6.75 18.75 6.75Z" stroke="currentColor" stroke-width="1.5"/>
<path fill-rule="evenodd" clip-rule="evenodd" d="M4.5 12C4.5 13.8186 4.5994 15.1777 4.82828 16.2076C5.05337 17.2204 5.38326 17.8206 5.78135 18.2187C6.17943 18.6167 6.77962 18.9466 7.79245 19.1717C8.82231 19.4006 10.1814 19.5 12 19.5C13.8186 19.5 15.1777 19.4006 16.2076 19.1717C17.2204 18.9466 17.8206 18.6167 18.2187 18.2187C18.6167 17.8206 18.9466 17.2204 19.1717 16.2076C19.4006 15.1777 19.5 13.8186 19.5 12C19.5 10.1814 19.4006 8.82231 19.1717 7.79245C19.147 7.68139 19.1211 7.57529 19.0939 7.47388C19.6276 7.39201 20.0995 7.12263 20.4403 6.73511C20.8531 8.03102 21 9.74629 21 12C21 19.4115 19.4115 21 12 21C4.5885 21 3 19.4115 3 12C3 4.5885 4.5885 3 12 3C14.2537 3 15.969 3.14688 17.2649 3.55971C16.8774 3.90046 16.608 4.37237 16.5261 4.90606C16.4247 4.87891 16.3186 4.85296 16.2076 4.82828C15.1777 4.59941 13.8186 4.5 12 4.5C10.1814 4.5 8.82231 4.59941 7.79245 4.82828C6.77962 5.05337 6.17943 5.38326 5.78135 5.78135C5.38326 6.17943 5.05337 6.77962 4.82828 7.79245C4.5994 8.82231 4.5 10.1814 4.5 12Z" fill="currentColor"/>
<path d="M7.5 13.5C7.5 13.5 9.57696 8.25 12 12C14.4231 15.75 16.5 10.5 16.5 10.5" stroke="currentColor" stroke-width="1.5" stroke-linecap="round" stroke-linejoin="round"/>

</svg>