<svg width="20" height="20" viewBox="0 0 20 20" fill="none" xmlns="http://www.w3.org/2000/svg">
<path d="M15.3333 5.33203C15.7015 5.33203 16 5.63051 16 5.9987C16 6.36688 15.7015 6.66536 15.3333 6.66536H14.6667L14.665 6.71289L14.0425 15.427C13.9927 16.1248 13.4121 16.6654 12.7126 16.6654H7.28744C6.58793 16.6654 6.00733 16.1248 5.95749 15.427L5.33505 6.71289C5.33392 6.69695 5.33335 6.6811 5.33333 6.66536H4.66667C4.29848 6.66536 4 6.36688 4 5.9987C4 5.63051 4.29848 5.33203 4.66667 5.33203H15.3333ZM13.3317 6.66536H6.66839L7.28744 15.332H12.7126L13.3317 6.66536ZM11.3333 3.33203C11.7015 3.33203 12 3.63051 12 3.9987C12 4.36688 11.7015 4.66536 11.3333 4.66536H8.66667C8.29848 4.66536 8 4.36688 8 3.9987C8 3.63051 8.29848 3.33203 8.66667 3.33203H11.3333Z" fill="#BF5959"/>
</svg>
