<svg width="20" height="20" viewBox="0 0 20 20" fill="none" xmlns="http://www.w3.org/2000/svg">
<mask id="mask0_841_16415" style="mask-type:luminance" maskUnits="userSpaceOnUse" x="3" y="2" width="15" height="15">
<path d="M18 2H3V17H18V2Z" fill="white"/>
</mask>
<g mask="url(#mask0_841_16415)">
<path fill-rule="evenodd" clip-rule="evenodd" d="M11.4164 3.87626C12.1707 3.12198 13.3936 3.12198 14.1479 3.87626L16.1281 5.85645L15.7663 6.21819L16.1281 5.85645C16.8823 6.61073 16.8823 7.83366 16.1281 8.58794L15.8513 8.31115L16.1281 8.58795L9.6075 15.1085C9.24526 15.4708 8.75396 15.6742 8.24173 15.6742H5.56143C4.88137 15.6742 4.33008 15.1229 4.33008 14.4428V11.7626C4.33008 11.2504 4.53354 10.759 4.89579 10.3968C4.8958 10.3968 4.89581 10.3968 4.89581 10.3968L11.4164 3.87626ZM11.7896 4.24946L11.792 4.25191L11.7896 4.24946L5.27143 10.7725L5.27144 10.7725M13.3966 4.62756C13.0572 4.28821 12.507 4.28821 12.1677 4.62756L11.7928 4.25271L12.1677 4.62756L5.64709 11.1481L5.64707 11.1481C5.48414 11.311 5.39258 11.5321 5.39258 11.7626V14.4428C5.39258 14.5361 5.46818 14.6117 5.56143 14.6117H8.24173C8.4722 14.6117 8.69321 14.5202 8.85616 14.3572L8.85618 14.3572L15.3768 7.83664C15.7161 7.4973 15.7161 6.9471 15.3768 6.60775L13.3966 4.62756Z" fill="#3A74A9"/>
</g>
</svg>
