<svg width="24" height="24" viewBox="0 0 24 24" fill="none" xmlns="http://www.w3.org/2000/svg">
<path d="M12.0007 13.8C14.482 13.8 16.4936 11.3823 16.4936 8.4C16.4936 5.41766 14.482 3 12.0007 3C9.51934 3 7.50781 5.41766 7.50781 8.4C7.50781 11.3823 9.51934 13.8 12.0007 13.8Z" fill="#727190"/>
<path d="M20.806 18.3898C19.9973 16.7698 18.4698 15.4198 16.4929 14.6098C15.9537 14.4298 15.3247 14.4298 14.8754 14.6998C13.9769 15.2398 13.0783 15.5098 12 15.5098C10.9217 15.5098 10.0231 15.2398 9.12456 14.6998C8.67527 14.5198 8.04626 14.4298 7.50712 14.6998C5.53025 15.5098 4.00267 16.8598 3.19395 18.4798C2.56495 19.6498 3.55338 20.9998 4.90125 20.9998H19.0988C20.4466 20.9998 21.4351 19.6498 20.806 18.3898Z" fill="#727190"/>
</svg>
