<svg width="24" height="24" viewBox="0 0 24 24" fill="none" xmlns="http://www.w3.org/2000/svg">
<path d="M14.6293 4.77924V9.87974C15.4893 10.3245 16.2306 10.9769 16.7644 11.8072C17.4168 12.7265 17.8023 13.883 17.8023 15.0988C17.8023 16.7298 17.1203 18.2125 16.0527 19.2801C14.9852 20.3476 13.5321 21 11.9012 21C10.2702 21 8.78748 20.3476 7.71993 19.2801C6.65239 18.2125 6 16.7298 6 15.0988C6 13.883 6.3855 12.7562 7.00824 11.8072V11.7776C7.57166 10.9769 8.31301 10.3245 9.17298 9.87974V4.77924H8.01647V3H15.7858V4.77924H14.6293V4.77924ZM11.5453 17.3229C11.8122 17.3229 12.0494 17.5305 12.0494 17.827C12.0494 18.0939 11.8122 18.3015 11.5453 18.3015C11.2784 18.3015 11.0412 18.0939 11.0412 17.827C11.0412 17.5305 11.2784 17.3229 11.5453 17.3229ZM9.76606 15.603C10.2998 15.603 10.7446 16.0478 10.7446 16.5815C10.7446 17.1153 10.2998 17.5305 9.76606 17.5305C9.23229 17.5305 8.78748 17.1153 8.78748 16.5815C8.78748 16.0478 9.23229 15.603 9.76606 15.603ZM10.9522 4.77924V11.0362L10.3888 11.2735C9.58814 11.57 8.93575 12.1038 8.49094 12.7858C8.01647 13.4382 7.77924 14.2389 7.77924 15.0988C7.77924 16.2554 8.22405 17.2932 8.9654 18.0346C9.73641 18.7759 10.7446 19.2504 11.9012 19.2504C13.028 19.2504 14.0659 18.7759 14.8072 18.0346C15.5783 17.2932 16.0231 16.2554 16.0231 15.0988C16.0231 14.2389 15.7562 13.4382 15.3114 12.7858C14.8666 12.1038 14.1845 11.57 13.4135 11.2735L12.8501 11.0362V4.77924H10.9522V4.77924Z" fill="#313541"/>
</svg>
