<svg width="24" height="24" viewBox="0 0 24 24" fill="none" xmlns="http://www.w3.org/2000/svg">
<path d="M3.77231 9.23629C3.80995 8.00334 3.90933 7.26188 4.13135 6.66541C4.54833 5.54519 5.12016 4.89275 5.99171 4.40423C6.74816 3.98023 7.93026 3.75 10.3337 3.75H13.6663C16.0697 3.75 17.2518 3.98023 18.0083 4.40423C18.8798 4.89275 19.4517 5.54519 19.8686 6.66541C20.0907 7.26188 20.19 8.00333 20.2277 9.23628C20.2392 9.61202 20.2375 9.68813 20.2266 9.74769C20.1741 10.0349 19.9316 10.2849 19.6461 10.3462C19.5877 10.3587 19.5028 10.3629 19.1008 10.3629C18.059 10.3629 17.461 11.3383 17.461 12.2047C17.461 13.0711 18.059 14.0465 19.1008 14.0465C19.4945 14.0465 19.5768 14.0506 19.6351 14.0631C19.9202 14.1239 20.171 14.3865 20.2186 14.674C20.2285 14.734 20.2291 14.8039 20.2127 15.1595C20.1664 16.1631 20.0648 16.8075 19.8686 17.3346C19.4517 18.4548 18.8798 19.1072 18.0083 19.5958C17.2518 20.0198 16.0697 20.25 13.6663 20.25H10.3337C7.93026 20.25 6.74816 20.0198 5.99171 19.5958C5.12016 19.1072 4.54833 18.4548 4.13135 17.3346C3.93516 16.8075 3.83363 16.1631 3.78731 15.1595C3.77089 14.8039 3.77149 14.734 3.78142 14.674C3.82903 14.3865 4.07983 14.1239 4.36487 14.0631C4.4232 14.0506 4.50546 14.0465 4.89919 14.0465C5.94099 14.0465 6.53895 13.0711 6.53895 12.2047C6.53895 11.3383 5.94099 10.3629 4.89919 10.3629C4.49716 10.3629 4.41234 10.3587 4.35389 10.3462C4.06838 10.2849 3.82588 10.0349 3.77339 9.74768C3.7625 9.68813 3.76084 9.61202 3.77231 9.23629Z" stroke="#313541" stroke-width="1.5"/>
<path fill-rule="evenodd" clip-rule="evenodd" d="M14.25 6C14.6642 6 15 6.33579 15 6.75V8.25C15 8.66421 14.6642 9 14.25 9C13.8358 9 13.5 8.66421 13.5 8.25L13.5 6.75C13.5 6.33579 13.8358 6 14.25 6ZM14.25 10.5C14.6642 10.5 15 10.8358 15 11.25V12.75C15 13.1642 14.6642 13.5 14.25 13.5C13.8358 13.5 13.5 13.1642 13.5 12.75L13.5 11.25C13.5 10.8358 13.8358 10.5 14.25 10.5ZM15 15.75C15 15.3358 14.6642 15 14.25 15C13.8358 15 13.5 15.3358 13.5 15.75L13.5 17.25C13.5 17.6642 13.8358 18 14.25 18C14.6642 18 15 17.6642 15 17.25V15.75Z" fill="#313541"/>
</svg>
