<svg width="15" height="14" viewBox="0 0 15 14" fill="none" xmlns="http://www.w3.org/2000/svg">
<path fill-rule="evenodd" clip-rule="evenodd" d="M13.7136 5.83333H8.22816V0.833333C8.22816 0.3725 7.81858 0 7.31392 0C6.80926 0 6.39968 0.3725 6.39968 0.833333V5.83333H0.914239C0.409579 5.83333 0 6.20583 0 6.66667C0 7.1275 0.409579 7.5 0.914239 7.5H6.39968V12.5C6.39968 12.9608 6.80926 13.3333 7.31392 13.3333C7.81858 13.3333 8.22816 12.9608 8.22816 12.5V7.5H13.7136C14.2183 7.5 14.6278 7.1275 14.6278 6.66667C14.6278 6.20583 14.2183 5.83333 13.7136 5.83333Z" fill="#00565C"/>
</svg>
