<svg width="24" height="24" viewBox="0 0 24 24" fill="none" xmlns="http://www.w3.org/2000/svg">
<g clip-path="url(#clip0_508_15631)">
<path d="M12 14.25C13.2426 14.25 14.25 13.2426 14.25 12C14.25 10.7574 13.2426 9.75 12 9.75C10.7574 9.75 9.75 10.7574 9.75 12C9.75 13.2426 10.7574 14.25 12 14.25Z" stroke="#727190" stroke-width="1.5" stroke-linecap="round" stroke-linejoin="round"/>
<path d="M17.55 14.25C17.4502 14.4762 17.4204 14.7271 17.4645 14.9704C17.5086 15.2137 17.6246 15.4382 17.7975 15.615L17.8425 15.66C17.982 15.7993 18.0926 15.9647 18.1681 16.1468C18.2436 16.3289 18.2824 16.5241 18.2824 16.7213C18.2824 16.9184 18.2436 17.1136 18.1681 17.2957C18.0926 17.4778 17.982 17.6432 17.8425 17.7825C17.7032 17.922 17.5378 18.0326 17.3557 18.1081C17.1736 18.1836 16.9784 18.2224 16.7812 18.2224C16.5841 18.2224 16.3889 18.1836 16.2068 18.1081C16.0247 18.0326 15.8593 17.922 15.72 17.7825L15.675 17.7375C15.4982 17.5646 15.2737 17.4486 15.0304 17.4045C14.7871 17.3604 14.5362 17.3902 14.31 17.49C14.0882 17.5851 13.899 17.7429 13.7657 17.9442C13.6325 18.1454 13.561 18.3812 13.56 18.6225V18.75C13.56 19.1478 13.402 19.5294 13.1207 19.8107C12.8394 20.092 12.4578 20.25 12.06 20.25C11.6622 20.25 11.2806 20.092 10.9993 19.8107C10.718 19.5294 10.56 19.1478 10.56 18.75V18.6825C10.5542 18.4343 10.4738 18.1935 10.3294 17.9915C10.1849 17.7896 9.98305 17.6357 9.75 17.55C9.52379 17.4502 9.27286 17.4204 9.02956 17.4645C8.78626 17.5086 8.56176 17.6246 8.385 17.7975L8.34 17.8425C8.20069 17.982 8.03526 18.0926 7.85316 18.1681C7.67106 18.2436 7.47587 18.2824 7.27875 18.2824C7.08163 18.2824 6.88644 18.2436 6.70434 18.1681C6.52224 18.0926 6.35681 17.982 6.2175 17.8425C6.07804 17.7032 5.9674 17.5378 5.89191 17.3557C5.81642 17.1736 5.77757 16.9784 5.77757 16.7812C5.77757 16.5841 5.81642 16.3889 5.89191 16.2068C5.9674 16.0247 6.07804 15.8593 6.2175 15.72L6.2625 15.675C6.4354 15.4982 6.55139 15.2737 6.5955 15.0304C6.63962 14.7871 6.60984 14.5362 6.51 14.31C6.41493 14.0882 6.25707 13.899 6.05585 13.7657C5.85463 13.6325 5.61884 13.561 5.3775 13.56H5.25C4.85218 13.56 4.47064 13.402 4.18934 13.1207C3.90804 12.8394 3.75 12.4578 3.75 12.06C3.75 11.6622 3.90804 11.2806 4.18934 10.9993C4.47064 10.718 4.85218 10.56 5.25 10.56H5.3175C5.56575 10.5542 5.8065 10.4738 6.00847 10.3294C6.21045 10.1849 6.36429 9.98305 6.45 9.75C6.54984 9.52379 6.57962 9.27286 6.5355 9.02956C6.49139 8.78626 6.3754 8.56176 6.2025 8.385L6.1575 8.34C6.01804 8.20069 5.9074 8.03526 5.83191 7.85316C5.75642 7.67106 5.71757 7.47587 5.71757 7.27875C5.71757 7.08163 5.75642 6.88644 5.83191 6.70434C5.9074 6.52224 6.01804 6.35681 6.1575 6.2175C6.29681 6.07804 6.46224 5.9674 6.64434 5.89191C6.82644 5.81642 7.02163 5.77757 7.21875 5.77757C7.41587 5.77757 7.61106 5.81642 7.79316 5.89191C7.97526 5.9674 8.14069 6.07804 8.28 6.2175L8.325 6.2625C8.50176 6.4354 8.72626 6.55139 8.96956 6.5955C9.21285 6.63962 9.46379 6.60984 9.69 6.51H9.75C9.97183 6.41493 10.161 6.25707 10.2943 6.05585C10.4275 5.85463 10.499 5.61884 10.5 5.3775V5.25C10.5 4.85218 10.658 4.47064 10.9393 4.18934C11.2206 3.90804 11.6022 3.75 12 3.75C12.3978 3.75 12.7794 3.90804 13.0607 4.18934C13.342 4.47064 13.5 4.85218 13.5 5.25V5.3175C13.501 5.55884 13.5725 5.79463 13.7057 5.99585C13.839 6.19707 14.0282 6.35493 14.25 6.45C14.4762 6.54984 14.7271 6.57962 14.9704 6.5355C15.2137 6.49139 15.4382 6.3754 15.615 6.2025L15.66 6.1575C15.7993 6.01804 15.9647 5.9074 16.1468 5.83191C16.3289 5.75642 16.5241 5.71757 16.7213 5.71757C16.9184 5.71757 17.1136 5.75642 17.2957 5.83191C17.4778 5.9074 17.6432 6.01804 17.7825 6.1575C17.922 6.29681 18.0326 6.46224 18.1081 6.64434C18.1836 6.82644 18.2224 7.02163 18.2224 7.21875C18.2224 7.41587 18.1836 7.61106 18.1081 7.79316C18.0326 7.97526 17.922 8.14069 17.7825 8.28L17.7375 8.325C17.5646 8.50176 17.4486 8.72626 17.4045 8.96956C17.3604 9.21285 17.3902 9.46379 17.49 9.69V9.75C17.5851 9.97183 17.7429 10.161 17.9442 10.2943C18.1454 10.4275 18.3812 10.499 18.6225 10.5H18.75C19.1478 10.5 19.5294 10.658 19.8107 10.9393C20.092 11.2206 20.25 11.6022 20.25 12C20.25 12.3978 20.092 12.7794 19.8107 13.0607C19.5294 13.342 19.1478 13.5 18.75 13.5H18.6825C18.4412 13.501 18.2054 13.5725 18.0042 13.7057C17.8029 13.839 17.6451 14.0282 17.55 14.25V14.25Z" stroke="#727190" stroke-width="1.5" stroke-linecap="round" stroke-linejoin="round"/>
</g>
<defs>
<clipPath id="clip0_508_15631">
<rect width="18" height="18" fill="white" transform="translate(3 3)"/>
</clipPath>
</defs>
</svg>
