<svg width="24" height="24" viewBox="0 0 24 24" fill="none" xmlns="http://www.w3.org/2000/svg">
<path d="M20 15.5493V8.37722C19.9997 8.06279 19.9174 7.75398 19.7614 7.48176C19.6054 7.20953 19.3811 6.98348 19.1111 6.82626L12.8889 3.24022C12.6186 3.08285 12.3121 3 12 3C11.6879 3 11.3814 3.08285 11.1111 3.24022L4.88889 6.82626C4.6189 6.98348 4.39465 7.20953 4.23863 7.48176C4.08262 7.75398 4.00032 8.06279 4 8.37722V15.5493C4.00032 15.8637 4.08262 16.1726 4.23863 16.4448C4.39465 16.717 4.6189 16.9431 4.88889 17.1003L11.1111 20.6863C11.3814 20.8437 11.6879 20.9265 12 20.9265C12.3121 20.9265 12.6186 20.8437 12.8889 20.6863L19.1111 17.1003C19.3811 16.9431 19.6054 16.717 19.7614 16.4448C19.9174 16.1726 19.9997 15.8637 20 15.5493Z" stroke="#313541" stroke-width="1.6" stroke-linecap="round" stroke-linejoin="round"/>
<path d="M4.24219 7.44434L12.0022 11.9717L19.7622 7.44434" stroke="#313541" stroke-width="1.6" stroke-linecap="round" stroke-linejoin="round"/>
<path d="M12 21.0002V11.9634" stroke="#313541" stroke-width="1.6" stroke-linecap="round" stroke-linejoin="round"/>
</svg>
